<svg width="50" height="50" xmlns="http://www.w3.org/2000/svg">
 <title>chicken2</title>

 <g>
  <title>Layer 1</title>
  <path d="m40.38459,23.41758c0,0.43956 0.08056,0.66428 0,1.31868c-0.11072,0.89939 -0.14937,0.8848 -0.21978,1.31868c-0.11133,0.68603 -0.43956,1.31868 -0.65934,2.1978c-0.21978,0.87912 -0.51542,2.01691 -0.87912,3.07692c-0.31898,0.92968 -0.77813,1.98977 -0.87912,2.41758c-0.11291,0.4783 -0.32665,0.6206 -0.43956,1.0989c-0.0505,0.2139 -0.28415,0.06437 -0.43956,0.21978c-0.15541,0.15541 -0.85778,0.91402 -2.63736,1.97802c-1.52082,0.9093 -2.67119,1.54974 -3.2967,1.75824c-1.04251,0.3475 -1.97802,1.0989 -2.85714,1.0989c-0.87912,0 -1.75824,0 -2.63736,0c-0.43956,0 -1.53846,0 -1.75824,0c-0.21978,0 -0.87912,0 -1.53846,0c-0.87912,0 -1.42952,0.30901 -2.41758,-0.21978c-0.82211,-0.43998 -1.3624,-0.55656 -1.97802,-0.87912c-0.97338,-0.51001 -1.31868,-0.87912 -1.75824,-1.31868c-0.43956,-0.43956 -0.99791,-0.45132 -1.0989,-0.87912c-0.11291,-0.4783 -1.0989,-0.65934 -1.53846,-1.0989c-0.21978,-0.21978 -0.81155,-0.48044 -1.0989,-0.87912c-0.18174,-0.25215 -0.43956,-0.43956 -0.43956,-0.65934c0,-0.21978 -0.32812,-0.71077 -0.87912,-1.75824c-0.36891,-0.70132 -0.29395,-1.16703 -0.65934,-1.75824c-0.32681,-0.52879 -0.54801,-0.41287 -0.65934,-1.0989c-0.07041,-0.43388 0,-0.65934 0,-0.87912c0,-0.21978 0,-0.21978 0,-0.87912c0,-0.21978 0,-0.43956 0,-0.65934l0,-0.21978l-0.21978,0" id="svg_3" stroke="#000" fill="none"/>
  <path d="m27.8395,19.34562c-0.37037,0 -1.60493,0.12346 -2.8395,0.12346c-1.11111,0 -2.59259,0 -3.33333,0c-0.74074,0 -1.97957,0.04346 -3.45679,-0.12346c-0.86745,-0.09802 -1.59981,-0.18509 -2.71605,-0.24691c-0.86287,-0.04779 -1.72839,0 -2.59259,0c-0.8642,0 -1.23734,0.04525 -1.60494,0c-0.50521,-0.06219 -1.35802,-0.37037 -1.85185,-0.49383c-0.49383,-0.12346 -1.22257,-0.27459 -1.48148,-0.37037c-0.47741,-0.17661 -0.74074,-0.12346 -1.11111,-0.12346c-0.12346,0 -0.37037,0 -0.61728,0c0,0 0,0.12346 0,0.49383c0,0 0,0.24691 0,0.37037c0,0.12346 -0.01978,0.37196 0,0.49383c0.06254,0.38536 0.24691,0.8642 0.49383,1.35802c0.12346,0.24691 0.4304,0.96589 0.49383,1.23457c0.11346,0.48062 0.06604,0.90256 0.24691,1.11111c0.25579,0.29493 0.27245,0.34724 0.49383,0.61728c0.28221,0.34424 0.46433,0.54517 0.8642,0.74074c0.35071,0.17153 0.75014,0.44658 0.8642,0.49383c0.32261,0.13363 0.51996,0.45853 0.8642,0.74074c0.13502,0.11069 0.61728,0.24691 0.8642,0.24691c0.49383,0 0.97627,0.18472 1.48148,0.24691c0.36759,0.04525 0.98765,0 1.23457,0c0.24691,0 0.37037,0 0.61728,0c0.37037,0 0.47883,-0.18438 0.8642,-0.24691c0.12186,-0.01978 0,0 0,0.12346c0,0.12346 -0.1801,0.33252 -0.24691,0.49383c-0.04725,0.11406 -0.12346,0.37037 -0.12346,0.37037c0,0.12346 0,0.24691 -0.12346,0.49383c0,0 0,0.12346 0,0.24691c0,0.12346 0,0.24691 0,0.37037c0,0.24691 0.19287,0.4402 0.49383,0.61728c0.77463,0.45579 1.43796,0.61389 1.97531,0.74074c0.48062,0.11346 0.98765,0.12346 1.35802,0.12346c0.24691,0 1.13767,-0.29145 1.97531,-0.61728c1.02911,-0.40031 1.56142,-0.8608 2.09876,-0.98765c0.24031,-0.05673 0.37037,0 0.37037,-0.24691c0,-0.12346 0,0.12346 0,0.24691c0,0.12346 -0.11137,0.47215 0.12346,0.61728c0.10502,0.06491 0.35219,0.14482 0.49383,0.24691c0.22395,0.16141 0.37037,0.12346 0.49383,0.12346c0.37037,0 0.98765,0 1.48148,0c0.61728,0 1.11111,0 1.35802,-0.24691c0.12346,-0.12346 0.37037,-0.37037 0.74074,-0.74074c0.37037,-0.37037 0.74074,-0.74074 0.8642,-0.98765c0.12346,-0.24691 0.09509,-0.37367 0.12346,-0.49383c0.2537,-1.07469 0.49383,-1.23457 0.74074,-1.72839l0.12346,-0.37037" id="svg_6" stroke="#000" fill="none"/>
  <path d="m40.43208,24.5308c0,0 0,0 0,0c0,-0.37037 0.11346,-0.50704 0,-0.98765c-0.06342,-0.26867 -0.06672,-0.37698 -0.12346,-0.61728c-0.06343,-0.26867 -0.24691,-0.37037 -0.24691,-0.37037c-0.12346,-0.37037 -0.1801,-0.45598 -0.24691,-0.61728c-0.04725,-0.11406 -0.0143,-0.61282 -0.12346,-0.98765c-0.14232,-0.48873 -0.12346,-0.8642 -0.12346,-0.8642c0,-0.12346 0,-0.49383 0,-0.61728c0,-0.61728 0,-0.8642 0,-0.98765c0,-0.49383 0,-0.74074 0,-1.11111c0,-0.37037 0,-0.98765 0,-1.23457c0,0 0,-0.49383 0,-0.61728c0,-0.24691 0,-0.37037 0,-0.61728c0,-0.12346 0.26571,-0.15242 0.49383,-0.24691c0.1613,-0.06681 0.26988,-0.0855 0.49382,-0.24691c0.28328,-0.20417 0.72575,-0.30783 1.11111,-0.37037c0.60931,-0.09888 0.74074,0 0.98766,0c0.37037,0 0.61728,0 0.86419,0c0.24691,0 0.24691,0 0.74074,0c0.12346,0 0.37037,0 0.49383,0c0.12346,0 0.46838,-0.25771 0.74074,-0.8642c0.22618,-0.50366 0.74074,-0.98765 0.74074,-1.35802c0,-0.12346 0,-0.24691 0,-0.49383c0,-0.12346 0,-0.24691 0,-0.61728c0,0 -0.29338,-0.00991 -0.49383,-0.49383c-0.04725,-0.11406 -0.19924,-0.16012 -0.49383,-0.49383c-0.18269,-0.20695 -0.29862,-0.42208 -0.49382,-0.61728c-0.1952,-0.1952 -0.33242,-0.39333 -0.49383,-0.61728c-0.20417,-0.28328 -0.37852,-0.23181 -0.61728,-0.37037c-0.38499,-0.22342 -0.8642,-0.37037 -0.8642,-0.37037c-0.37037,0 -0.61728,0 -0.8642,0c-0.12346,0 -0.49383,0 -0.8642,0c-0.24691,0 -0.49383,-0.12346 -0.8642,-0.12346c-0.61728,0 -0.8642,0 -1.23457,0c-0.24691,0 -0.37037,0 -0.61728,0c-0.37037,0 -0.49383,0 -0.49383,0c-0.37037,0.12346 -0.61728,0.37037 -0.98765,0.49383c-0.37037,0.12346 -0.99734,0.46788 -1.35802,0.61728c-0.51009,0.21128 -0.64025,0.45587 -0.86419,0.61728c-0.28328,0.20417 -0.81023,0.57165 -1.35802,1.48148c-0.42718,0.7095 -0.65556,1.02932 -0.98765,1.23457c-0.29704,0.18358 -0.42208,0.42208 -0.61728,0.61728c-0.3904,0.3904 -0.44524,0.80725 -0.61728,1.11111c-0.2508,0.44295 -0.36649,0.91507 -0.61728,1.35802c-0.08602,0.15193 -0.49383,0.49383 -0.49383,0.61728c0,0.12346 0,0.37037 0,0.37037c-0.12346,0 -0.15962,0.03616 -0.24691,0.12346c-0.0873,0.0873 -0.09839,0.27858 -0.24691,0.37037c-0.3321,0.20525 -0.49383,0.24691 -0.49383,0.49383c0,0.12346 0.04725,0.25631 0,0.37037c-0.13363,0.32261 -0.80407,0.93753 -0.98765,1.23457c-0.20525,0.3321 -0.03616,0.40653 -0.12346,0.49383c-0.0873,0.0873 -0.37037,0 -0.37037,-0.12346l0,0l0,-0.24691" id="svg_7" stroke="#000" fill="none"/>
  <path d="m46.72837,11.93822c0,0.12346 0.58883,1.15938 0.8642,1.60494c0.20525,0.3321 0.48365,0.7885 0.61728,1.11111c0.04725,0.11406 -0.17459,0.31923 0,0.49383c0.0873,0.0873 0.15962,0.33421 0.24691,0.24691c0.0873,-0.0873 -0.24691,-0.24691 -0.37037,-0.37037c-0.24691,-0.24691 -0.37037,-0.37037 -0.8642,-0.61728c-0.49383,-0.24691 -0.74734,-0.19018 -0.98765,-0.24691c-0.26867,-0.06343 -0.43817,-0.36483 -0.8642,-0.49383c-0.11816,-0.03578 -0.37037,0 -0.61728,0l0,0" id="svg_8" stroke="#000" fill="none"/>
  <path d="m43.39504,14.16044c0,0 -0.02122,-0.06921 -0.12346,0c-0.55053,0.37272 -0.49383,0.8642 -0.49383,0.98765c0,0.24691 0.03529,0.3965 -0.24691,0.74074c-0.22138,0.27004 -0.37037,0.49383 -0.49383,0.74074c-0.12346,0.24691 -0.24691,0.24691 -0.37037,0.24691c-0.12346,0 -0.24691,0 -0.37037,0c-0.12346,0 -0.38881,0.06491 -0.49383,0c-0.23483,-0.14513 -0.07621,-0.37977 -0.12346,-0.49383c-0.13363,-0.32261 -0.37037,-0.37037 -0.37037,-0.61728c0,-0.12346 0,-0.12346 0,-0.24691l0,-0.12346l-0.12346,0" id="svg_9" stroke="#000" fill="none"/>
  <path d="m44.25924,8.85181c0,0 0,-0.12346 0,-0.12346c0.12346,0 0.49383,-0.49383 0.74074,-0.74074c0.24691,-0.24691 0.10254,-0.33324 0.37037,-0.61728c0.4561,-0.48371 0.84442,-0.37196 0.8642,-0.49383c0.06253,-0.38536 0.42513,-0.66427 0.61728,-1.35802c0.06591,-0.23795 0.02837,-0.37367 0,-0.49383c-0.06343,-0.26867 -0.12346,-0.37037 -0.37037,-0.61728c-0.12346,-0.12346 -0.32235,-0.36149 -0.61728,-0.61728c-0.20855,-0.18087 -0.09396,-0.42172 -0.49382,-0.61728c-0.35071,-0.17153 -0.49383,-0.24691 -0.61728,-0.24691c-0.24691,0 -0.37037,0 -0.49383,0c-0.24691,0 -0.55386,0.1017 -0.61728,0.37037c-0.05673,0.24031 0,0.37037 0,0.49383c0,0.37037 -0.10528,0.5152 -0.24691,0.61728c-0.22395,0.16141 -0.49383,0.37037 -0.61728,0.37037c-0.12346,0 -0.10835,-0.00815 -0.24691,-0.24691c-0.22342,-0.385 -0.40864,-0.65895 -0.74074,-0.8642c-0.29704,-0.18358 -0.37037,-0.37037 -0.61728,-0.37037c-0.12346,0 -0.37037,0 -0.49383,0c-0.37037,0 -0.63572,-0.06491 -0.74074,0c-0.23483,0.14513 -0.24691,0.37037 -0.24691,0.49383c0,0.24691 0,0.37037 0,0.49383c0,0.12346 -0.04725,0.25631 0,0.37037c0.06681,0.1613 0.12346,0.12346 0.24691,0.12346c0.24691,0 0.37037,0 0.37037,0.12346c0,0.12346 0,0.24691 -0.37037,0.24691c-0.24691,0 -0.8642,0 -1.48148,0c-0.61728,0 -0.8642,0 -1.11111,0c0,0 -0.12346,0 -0.12346,0.12346c0,0 0,0.12346 0,0.24691c0,0.12346 0,0.24691 0,0.24691c0,0.12346 -0.11137,0.34869 0.12346,0.49383c0.21003,0.12981 0.37037,0 0.49382,0.37037c0,0 0.24691,0.12346 0.37037,0.12346c0.12346,0 0.13285,0.07621 0.24691,0.12346c0.1613,0.06681 0.12346,0.24691 0.24691,0.24691l0,0.12346l0.12346,0l0,0" id="svg_10" stroke="#000" fill="none"/>
  <path d="m9.69138,25.395c0,0 0,0 0,0.12346c0,0 0,0.12346 0,0.24691c0,0.12346 0,0.37037 0,0.49383c0,0.12346 0,0.24691 0,0.24691c0,0.12346 0,0.37037 0,0.49383c0,0 0,0.12346 0,0.24691l0,0.12346l0,-0.37037" id="svg_12" stroke="#000" fill="none"/>
  <path d="m46.4778,11.31522c0,0.09852 0.14372,0.16684 0.19704,0.29557c0.0377,0.09102 0,0.29557 0,0.39409l0.09852,0l0.19704,0.19704l0,0.09852" id="svg_13" stroke="#000" fill="none"/>
  <path d="m43.22657,14.3694c0,0 0,0.09852 0,0.19704l0,0.09852l0,0.09852" id="svg_15" stroke="#000" fill="none"/>
  <path d="m39.87682,14.96053c0,0 0,0 0.09852,0.19704c0,0 0.09852,0 0.19704,0l0,0l0,0.09852" id="svg_16" stroke="#000" fill="none"/>
  <polyline stroke-linecap="round" id="svg_24" points="41.945787661641454,10.428518241258267 41.945787661641454,10.428518241258267 " stroke="#000" fill="none"/>
  <path d="m28.50282,40.06207c-0.45198,0.33899 -0.73673,0.61126 -1.12994,1.01695c-0.50355,0.51953 -0.90226,0.93588 -1.58192,1.35593c-0.30395,0.18785 -0.32526,0.39474 -0.67797,0.45198c-0.11154,0.0181 -0.04693,0.02133 -0.113,0.113c-0.20893,0.28987 -1.24294,0.79096 -1.58192,1.12994c-0.33898,0.33898 -0.46304,0.65813 -0.67797,0.79096c-0.19224,0.11881 -0.342,-0.02596 -0.45198,0c-0.49181,0.1161 -0.84598,0.34808 -1.12994,0.56497c-0.32377,0.24729 -0.33898,0.33898 -0.45198,0.33898c-0.113,0 -0.22599,0 -0.22599,0c-0.113,0 -0.22599,0 -0.45198,-0.113c-0.22599,-0.11299 -0.41734,-0.27783 -0.56497,-0.33898c-0.20879,-0.08648 -0.36,-0.07825 -0.56497,-0.22599c-0.12964,-0.09344 -0.32527,0.01371 -0.56497,-0.22599c-0.0799,-0.0799 -0.11299,-0.22599 -0.11299,-0.33898l0,-0.113" id="svg_26" stroke="#000" fill="none"/>
  <path d="m22.9661,40.40106c0,0 0,0 0,0c0.22599,0.45198 0.47348,0.89057 0.67797,1.24294c0.25364,0.43706 0.45197,0.79096 0.79096,1.12994c0.22599,0.22599 0.34808,0.507 0.56497,0.79096c0.24729,0.32377 0.46366,0.3284 0.56497,0.45198c0.25829,0.31506 0.33898,0.45198 0.45198,0.56497c0.22599,0.22599 0.33898,0.45198 0.33898,0.56497c0,0.22599 0,0.45198 0,0.45198c0.11299,0 0.45198,0 0.79096,0c0.113,0 0.22599,0 0.67797,-0.22599c0.45198,-0.22599 0.79096,-0.33898 0.90395,-0.33898l0.113,0l0,-0.113" id="svg_27" stroke="#000" fill="none"/>
  <path d="m22.74011,40.17507c0,0.113 0,0.22599 0,0.22599l0,0" id="svg_28" stroke="#000" fill="none"/>
  <path d="m26.01695,45.3728c-0.11299,0 -0.43859,0.13449 -0.79096,0.33898c-0.21853,0.12682 -0.33898,0.113 -0.45198,0.113l-0.22599,0l0,0" id="svg_29" stroke="#000" fill="none"/>
  <path d="m28.38983,45.03382c0.11299,0 0.22599,0 0.22599,0c0.11299,0 0.22599,0 0.45198,0c0.113,0 0.22599,0 0.33898,0c0.11299,0 0.33898,0 0.56497,0l0,0" id="svg_31" stroke="#000" fill="none"/>
  <path d="m20.81921,45.59879c0,0 -0.0799,0.03309 0,0.11299c0.1598,0.1598 0.30434,0.05184 0.45198,0.113c0.20879,0.08648 0.33898,0 0.45198,0c0.11299,0 0.33898,0 0.56497,0c0,0 0.113,0 0.22599,0c0.113,0 0.33898,0.113 0.45198,0.22599c0.11299,0.11299 0.22599,0.11299 0.22599,0.11299l0.22599,0l0.113,0.113l0,0.113" id="svg_32" stroke="#000" fill="none"/>
  <path d="m23.19209,40.74004c0,0 0,0 -0.11299,-0.113c-0.113,-0.113 -0.33898,-0.22599 -0.33898,-0.22599c0,-0.113 -0.11299,-0.33899 -0.11299,-0.45198l-0.113,0" id="svg_36" stroke="#000" fill="none"/>
 </g>
</svg>